<svg xmlns="http://www.w3.org/2000/svg" version="1.1" xmlns:xlink="http://www.w3.org/1999/xlink" width="2500" height="2415"><svg xmlns="http://www.w3.org/2000/svg" version="1.1" xmlns:xlink="http://www.w3.org/1999/xlink" width="2500" height="2415"><svg height="2415" viewBox="14.671 16.966 181.872 178.469" width="2500" xmlns="http://www.w3.org/2000/svg">
  <path d="m144.147 16.967-8.563.07h-14.688v178.398h30.538c24.76 0 44.996-20.743 45.095-45.482h.002v-.143-79.88h.012v-7.3c0-24.82-20.277-45.664-45.097-45.664zm-84.367 0c-24.759 0-44.995 20.743-45.095 45.482h-.002v80.022h-.012v7.3c0 24.82 20.278 45.664 45.098 45.664h42.203v-178.399h-34.893v-.069zm.568 14.74v.018h6.73v23.851-23.851h20.206v149.022h-20.217v-38.275 38.275h-6.212c-23.388-2.136-30.537-15.791-31.484-34.477v-3.798h37.696l-37.696-.001v-72.539h13.647a16.82 16.82 0 0 0 -.04.784 16.82 16.82 0 0 0 16.82 16.82 16.82 16.82 0 0 0 16.82-16.82 16.82 16.82 0 0 0 -9.54-15.14 16.82 16.82 0 0 0 -7.28-1.68 16.82 16.82 0 0 0 -16.78 16.035h-13.648v-3.528c.885-18.684 7.893-32.394 30.977-34.696zm96.065 65.441c10.052 0 18.072 8.02 18.072 18.073s-8.02 18.072-18.072 18.072-18.072-8.02-18.072-18.072 8.02-18.073 18.072-18.073z" fill="#01ffe1"></path>
</svg></svg><style>@media (prefers-color-scheme: light) { :root { filter: none; } }
@media (prefers-color-scheme: dark) { :root { filter: none; } }
</style></svg>