<svg width="1024" height="1024" viewBox="0 0 1024 1024" fill="none" xmlns="http://www.w3.org/2000/svg">
<path d="M728.993 0.00573454L680.781 0.407382H598.082V1024H770.021C909.428 1024 1023.36 904.983 1023.92 763.038H1023.93V762.218V303.891H1024V262.006C1024 119.596 909.834 0 770.089 0L728.993 0.00573454ZM253.979 0.00573454C114.577 0.00573454 0.641863 119.023 0.0788297 260.967H0.0675645V720.109H0V761.994C0 904.404 114.172 1024 253.917 1024H491.534V0.401637H295.075V0.00573454H253.979ZM257.177 84.5793V84.6826H295.069H408.835V939.725H295.007H260.031C128.349 927.469 88.0978 849.121 82.7659 741.906V720.115H295.007L82.7659 720.109V303.903H159.603C159.494 305.4 159.419 306.9 159.378 308.401C159.378 333.996 169.355 358.544 187.116 376.642C204.876 394.741 228.963 404.909 254.08 404.909C266.517 404.909 278.831 402.413 290.321 397.563C301.811 392.713 312.251 385.604 321.045 376.642C329.839 367.681 336.814 357.042 341.574 345.333C346.333 333.624 348.782 321.075 348.782 308.401C348.758 290.238 343.704 272.45 334.203 257.083C324.701 241.716 311.136 229.394 295.069 221.532C282.288 215.228 268.279 211.934 254.08 211.893C229.75 211.925 206.365 221.498 188.775 238.628C171.184 255.758 160.739 279.135 159.603 303.903L82.7603 303.897V283.654C87.7431 176.451 127.206 97.7875 257.177 84.5793ZM798.055 460.06C854.651 460.06 899.806 506.076 899.806 563.757C899.806 621.438 854.651 667.448 798.055 667.448C741.459 667.448 696.303 621.432 696.303 563.757C696.303 506.082 741.459 460.06 798.055 460.06Z" fill="#01FFE1"/>
</svg>
